# xmcd
#
# Track frame offsets:
#	150
#	15519
#	36289
#	53054
#	67908
#	81963
#	95620
#	108212
#	121723
#	140233
#	156606
#	172427
#	186378
#	200139
#	222317
#	237749
#	252668
#	266474
#	278687
#	293107
#
# Disc length: 4066 seconds
#
# Revision: 0
# Processed by: cddbd v1.5.2PL0 Copyright (c) Steve Scherf et al.
# Submitted via: EasyCDDAExtractor 16.0.6.1
#
DISCID=3e0fe014
DTITLE=Βασίλης Τσιτσάνης 01
DYEAR=2009
DGENRE=Ποικίλη
TTITLE0=Μπέλλου Σωτηρία - Συννεφιασμένη Κυριακή
TTITLE1=Μητσιάς Μανώλης - Απόκληρος
TTITLE2=Γλυκερία - Τα καβουράκια
TTITLE3=Αλεξάνδρα-Τσιτσάνης Βασίλης - Ακρογιαλιές δειλινά
TTITLE4=Μαργαρίτης Γιώργος - Πειραιά και Μοσχάτο (Μαυρομάτα)
TTITLE5=Γλυκερία-Ιακωβίδης Αγάθωνας - Με παρέσυρε το ρέμα
TTITLE6=Περπινιάδης Βαγγέλης - Κάποια μάννα αναστενάζει [στ. Μπάμπης Μπακάλης]
TTITLE7=Οπισθοδρομική κομπανία-Αρβανιτάκη Ελ. - Καΐκι μου Άη Νικόλα
TTITLE8=Καζαντζίδης Στέλιος - Γιατί με ξύπνησες πρωΐ
TTITLE9=Τσαλιγοπούλου Ελένη - Της ταβέρνας το ρολόϊ
TTITLE10=Ρεμπέτικη κομπανία - Να γιατί περνώ
TTITLE11=Ευσταθίου Δημήτρης - Για μιά γυναίκα χάθηκα
TTITLE12=Μενιδιάτης Μιχάλης - Αφού μ' αρέσει να γυρνώ
TTITLE13=Ντάλη Καίτη - Μη μού ξαναφύγεις πια
TTITLE14=Κυριαζής Γιάννης - Είμαι παιδάκι με ψυχή
TTITLE15=Μαριώ - Τι σήμερα, τι αύριο, τι τώρα [στ. Γερ. Τσάκαλος]
TTITLE16=Κεφάλας Στέλιος - Στο τάγμα τηλεγραφητών
TTITLE17=Κανά Μελίνα - Αράπικο λουλούδι
TTITLE18=Νίνου Μαρίκα - Ζαΐρα [στ. Κώστας Βίρβος]
TTITLE19=Άνευ ερμηνευτού - Μπαξέ τσιφλίκι [οργ., σόλο μπ. Γ. Ζαμπέτας]
EXTD=
EXTT0=
EXTT1=
EXTT2=
EXTT3=
EXTT4=
EXTT5=
EXTT6=
EXTT7=
EXTT8=
EXTT9=
EXTT10=
EXTT11=
EXTT12=
EXTT13=
EXTT14=
EXTT15=
EXTT16=
EXTT17=
EXTT18=
EXTT19=
PLAYORDER=
